# xmcd CD database file
#
# Track frame offsets:
#	150
#	16240
#	30897
#	50625
#	69387
#	83505
#	96710
#	116675
#	138807
#	155612
#
# Disc length: 2318 seconds
#
# Revision: 4
# Processed by: cddbd v1.5PL3 Copyright (c) Steve Scherf et al.
# Submitted via: CDex 1.50beta10
#
DISCID=78090c0a
DTITLE=T-Model Ford - You Better Keep Still
DYEAR=1998
DGENRE=Blues
TTITLE0=If I Had Wings (Part1)
TTITLE1=To The Left To The Right
TTITLE2=Look What All You Got
TTITLE3=Here Comes Papa
TTITLE4=We Don't Understand
TTITLE5=These Eyes
TTITLE6=Pop Pop Pop (Remix)
TTITLE7=The Old Number
TTITLE8=Com Back Home
TTITLE9=If I Had Wings
EXTD=YEAR: 1998
EXTT0=
EXTT1=
EXTT2=
EXTT3=
EXTT4=
EXTT5=
EXTT6=
EXTT7=
EXTT8=
EXTT9=
PLAYORDER=
